{
  "accessors": [
    {
      "bufferView": 2,
      "componentType": 5126,
      "count": 60480,
      "max": [
        -21048.248046875,
        41646.70703125,
        8244.3203125
      ],
      "min": [
        -32630.220703125,
        20887.341796875,
        -4454.7255859375
      ],
      "type": "VEC3"
    },
    {
      "bufferView": 2,
      "byteOffset": 725760,
      "componentType": 5126,
      "count": 60480,
      "max": [
        0.99999499320983887,
        0.99999862909317017,
        0.99996811151504517
      ],
      "min": [
        -0.99999755620956421,
        -0.99999719858169556,
        -0.99998289346694946
      ],
      "type": "VEC3"
    },
    {
      "bufferView": 3,
      "componentType": 5126,
      "count": 60480,
      "max": [
        1,
        0.99797582626342773,
        0.99998950958251953,
        1
      ],
      "min": [
        -0.99999433755874634,
        -0.99879729747772217,
        -0.99999785423278809,
        -1
      ],
      "type": "VEC4"
    },
    {
      "bufferView": 1,
      "componentType": 5126,
      "count": 60480,
      "max": [
        0.9984009861946106,
        0.99902200698852539
      ],
      "min": [
        0.00097699998877942562,
        0.17254999279975891
      ],
      "type": "VEC2"
    },
    {
      "bufferView": 0,
      "componentType": 5125,
      "count": 269178,
      "max": [
        60479
      ],
      "min": [
        0
      ],
      "type": "SCALAR"
    },
    {
      "bufferView": 2,
      "byteOffset": 1451520,
      "componentType": 5126,
      "count": 499,
      "max": [
        -24397.53515625,
        39834.69140625,
        8122.31640625
      ],
      "min": [
        -32513.341796875,
        27231.109375,
        -4328.16015625
      ],
      "type": "VEC3"
    },
    {
      "bufferView": 2,
      "byteOffset": 1457508,
      "componentType": 5126,
      "count": 499,
      "max": [
        0.99609625339508057,
        0.9999854564666748,
        0.99837398529052734
      ],
      "min": [
        -0.99579149484634399,
        -0.89975059032440186,
        -0.992584228515625
      ],
      "type": "VEC3"
    },
    {
      "bufferView": 0,
      "byteOffset": 1076712,
      "componentType": 5125,
      "count": 1254,
      "max": [
        498
      ],
      "min": [
        0
      ],
      "type": "SCALAR"
    },
    {
      "bufferView": 2,
      "byteOffset": 1463496,
      "componentType": 5126,
      "count": 77,
      "max": [
        -23073.177734375,
        41646.70703125,
        -2120.737548828125
      ],
      "min": [
        -25175.986328125,
        41646.70703125,
        -3009.045166015625
      ],
      "type": "VEC3"
    },
    {
      "bufferView": 2,
      "byteOffset": 1464420,
      "componentType": 5126,
      "count": 77,
      "max": [
        0.89773523807525635,
        0.99999862909317017,
        0.67039328813552856
      ],
      "min": [
        -0.7763512134552002,
        -0.96662259101867676,
        -0.85971522331237793
      ],
      "type": "VEC3"
    },
    {
      "bufferView": 0,
      "byteOffset": 1081728,
      "componentType": 5125,
      "count": 207,
      "max": [
        76
      ],
      "min": [
        0
      ],
      "type": "SCALAR"
    }
  ],
  "asset": {
    "extras": {
      "author": "jvouillon (https://sketchfab.com/jvouillon)",
      "license": "CC-BY-4.0 (http://creativecommons.org/licenses/by/4.0/)",
      "source": "https://sketchfab.com/models/7f9164e6018c4ec7a3585bbf6e6d70df",
      "title": "Fire Hydrant"
    },
    "generator": "Sketchfab-3.20.7",
    "version": "2.0"
  },
  "bufferViews": [
    {
      "buffer": 0,
      "byteLength": 1082556,
      "byteOffset": 0,
      "name": "floatBufferViews",
      "target": 34963
    },
    {
      "buffer": 0,
      "byteLength": 483840,
      "byteOffset": 1082556,
      "byteStride": 8,
      "name": "floatBufferViews",
      "target": 34962
    },
    {
      "buffer": 0,
      "byteLength": 1465344,
      "byteOffset": 1566396,
      "byteStride": 12,
      "name": "floatBufferViews",
      "target": 34962
    },
    {
      "buffer": 0,
      "byteLength": 967680,
      "byteOffset": 3031740,
      "byteStride": 16,
      "name": "floatBufferViews",
      "target": 34962
    }
  ],
  "buffers": [
    {
      "byteLength": 3999420,
      "uri": "scene.bin"
    }
  ],
  "images": [
    {
      "uri": "textures/Material_0_baseColor.jpg"
    }
  ],
  "materials": [
    {
      "doubleSided": true,
      "name": "Material_0",
      "pbrMetallicRoughness": {
        "baseColorFactor": [
          1,
          1,
          1,
          1
        ],
        "baseColorTexture": {
          "index": 0,
          "texCoord": 0
        },
        "metallicFactor": 0.22,
        "roughnessFactor": 0.56234403669999999
      }
    },
    {
      "doubleSided": true,
      "emissiveFactor": [
        0,
        0,
        0
      ],
      "name": "Material_1",
      "pbrMetallicRoughness": {
        "baseColorFactor": [
          1,
          1,
          1,
          1
        ],
        "metallicFactor": 0,
        "roughnessFactor": 0.20000000000000001
      }
    },
    {
      "doubleSided": true,
      "emissiveFactor": [
        0,
        0,
        0
      ],
      "name": "Material_2",
      "pbrMetallicRoughness": {
        "baseColorFactor": [
          0.5,
          0.5,
          0.5,
          1
        ],
        "metallicFactor": 0,
        "roughnessFactor": 0.20000000000000001
      }
    }
  ],
  "meshes": [
    {
      "primitives": [
        {
          "attributes": {
            "NORMAL": 1,
            "POSITION": 0,
            "TANGENT": 2,
            "TEXCOORD_0": 3
          },
          "indices": 4,
          "material": 0,
          "mode": 4
        }
      ]
    },
    {
      "primitives": [
        {
          "attributes": {
            "NORMAL": 6,
            "POSITION": 5
          },
          "indices": 7,
          "material": 1,
          "mode": 4
        }
      ]
    },
    {
      "primitives": [
        {
          "attributes": {
            "NORMAL": 9,
            "POSITION": 8
          },
          "indices": 10,
          "material": 2,
          "mode": 4
        }
      ]
    }
  ],
  "nodes": [
    {
      "children": [
        1
      ],
      "name": "RootNode (gltf orientation matrix)",
      "rotation": [
        -0.70710678118654746,
        -0,
        -0,
        0.70710678118654757
      ]
    },
    {
      "children": [
        2
      ],
      "matrix": [
        1,
        0,
        0,
        0,
        0,
        0,
        -1,
        0,
        0,
        1,
        0,
        0,
        0,
        29372.171875,
        33161.78125,
        1
      ],
      "name": "RootNode (model correction matrix)"
    },
    {
      "children": [
        3,
        4,
        5
      ],
      "name": "Hydrant-88K.obj.cleaner.gles"
    },
    {
      "mesh": 0,
      "name": ""
    },
    {
      "mesh": 1,
      "name": ""
    },
    {
      "mesh": 2,
      "name": ""
    }
  ],
  "samplers": [
    {
      "magFilter": 9729,
      "minFilter": 9987,
      "wrapS": 10497,
      "wrapT": 10497
    }
  ],
  "scene": 0,
  "scenes": [
    {
      "name": "OSG_Scene",
      "nodes": [
        0
      ]
    }
  ],
  "textures": [
    {
      "sampler": 0,
      "source": 0
    }
  ]
}

